<svg xmlns="http://www.w3.org/2000/svg" viewBox="0 0 255.12 256.75"><defs><style>.cls-1{fill:#3d62ab;}.cls-2{fill:#f1f1f1;}</style></defs><title>logoPcsysSite</title><g id="Calque_2" data-name="Calque 2"><g id="Calque_1-2" data-name="Calque 1"><rect class="cls-1" width="255.12" height="256.75" rx="28.35"/><path class="cls-2" d="M64.34,154v31.75H32.87V65.84c.27,0,.53-.06.8-.06,17,0,34.08-.15,51.11.07,11.26.15,21,4.47,29.13,12.23a42.45,42.45,0,0,1,13.21,25.71,43.08,43.08,0,0,1-11.34,36.15,42.32,42.32,0,0,1-25.27,13.54,42.87,42.87,0,0,1-6.09.5c-6.15.06-12.31,0-18.47,0Zm.07-27.31c.34,0,.57,0,.81,0,6.4,0,12.79,0,19.19,0a15.28,15.28,0,0,0,2.86-.32,17,17,0,0,0,13.79-18.11,17.25,17.25,0,0,0-17.33-15.9H64.41Z"/><path class="cls-2" d="M174,151.75c.1.64.16,1.27.3,1.88a8.42,8.42,0,0,0,4.38,5.59,14.05,14.05,0,0,0,13.35.31,8.24,8.24,0,0,0,5-7.46c.15-3.72-1.64-6.34-4.77-8.11a16.15,16.15,0,0,0-7.86-1.72c-11.71-.27-22.07-4.1-30.76-12-6.29-5.75-10.33-12.81-11.27-21.36a32.71,32.71,0,0,1,7-24.36c6.46-8.29,15.15-13,25.3-15,11.51-2.33,22.69-1.28,33.26,4,8.85,4.43,15.53,11,19.15,20.39a31.42,31.42,0,0,1,2.07,11.23H197.4c-1.54-6.48-6.77-10.06-13.44-9a17.5,17.5,0,0,0-5.32,1.64,7.91,7.91,0,0,0-4.36,8c.28,4,2.64,6.55,6.32,7.94,2.84,1.07,5.84.72,8.77,1,14.13,1.21,26,6.6,34.21,18.63A32.87,32.87,0,0,1,221,173.44c-7.22,8.29-16.46,12.86-27.24,14.4A51,51,0,0,1,164,183.68c-10.22-4.84-17.63-12.34-20.78-23.45a77.51,77.51,0,0,1-1.48-8.48Z"/></g></g></svg>