<?xml version="1.0" standalone="no"?>
<!DOCTYPE svg PUBLIC "-//W3C//DTD SVG 20010904//EN"
 "http://www.w3.org/TR/2001/REC-SVG-20010904/DTD/svg10.dtd">
<svg version="1.0" xmlns="http://www.w3.org/2000/svg"
 width="258.000000pt" height="258.000000pt" viewBox="0 0 258.000000 258.000000"
 preserveAspectRatio="xMidYMid meet">
<metadata>
Created by potrace 1.14, written by Peter Selinger 2001-2017
</metadata>
<g transform="translate(0.000000,258.000000) scale(0.100000,-0.100000)"
fill="#000000" stroke="none">
<path d="M175 2541 c-64 -30 -101 -66 -138 -135 l-22 -41 0 -1075 0 -1075 23
-46 c29 -59 82 -112 141 -141 l46 -23 1065 0 1065 0 51 27 c58 31 108 84 135
142 18 39 19 92 19 1113 l0 1071 -32 63 c-36 68 -98 120 -166 139 -24 6 -401
10 -1082 10 l-1045 0 -60 -29z m714 -631 c372 -43 533 -477 277 -744 -101
-104 -190 -136 -383 -136 l-123 0 0 -160 0 -160 -160 0 -160 0 0 598 c0 329 3
602 7 605 10 11 447 8 542 -3z m1146 -49 c152 -54 239 -153 270 -308 l7 -33
-164 0 -163 0 -13 30 c-19 41 -64 64 -115 57 -60 -8 -91 -36 -95 -84 -3 -35 1
-44 28 -67 23 -19 43 -26 73 -26 64 0 175 -27 233 -55 73 -36 167 -138 190
-207 41 -119 15 -242 -69 -334 -81 -89 -155 -127 -282 -145 -241 -33 -470 115
-500 324 l-7 47 160 0 160 0 19 -37 c46 -95 213 -72 213 30 0 60 -59 97 -157
97 -57 0 -153 32 -212 70 -114 73 -175 178 -176 300 0 66 5 85 33 142 73 149
229 232 422 224 53 -2 108 -12 145 -25z"/>
<path d="M660 1475 l0 -165 124 0 c111 0 126 2 157 23 18 12 44 38 57 57 20
29 23 44 20 93 -5 64 -25 98 -78 135 -30 20 -45 22 -156 22 l-124 0 0 -165z"/>
</g>
</svg>
